<?xml version="1.0" encoding="UTF-8"?>
<svg viewBox="0 0 64 64" xmlns="http://www.w3.org/2000/svg" role="img" aria-label="Cafe Aroma">
  <defs><linearGradient id="g" x1="0" y1="0" x2="1" y2="1"><stop offset="0%" stop-color="#8b5cf6"/><stop offset="100%" stop-color="#d97706"/></linearGradient></defs>
  <path d="M12 20h34a6 6 0 016 6v4a10 10 0 01-10 10H20A8 8 0 0112 32V20z" fill="url(#g)"/>
  <rect x="10" y="18" width="40" height="4" rx="2" fill="#4b5563"/>
  <path d="M18 40h28v2a8 8 0 01-8 8H26a8 8 0 01-8-8v-2z" fill="#111827"/>
  <path d="M20 10c0 3-4 3-4 6s4 3 4 6M30 10c0 3-4 3-4 6s4 3 4 6M40 10c0 3-4 3-4 6s4 3 4 6" stroke="#6b7280" stroke-width="2" fill="none" stroke-linecap="round"/>
</svg>